<svg xmlns="http://www.w3.org/2000/svg" xmlns:xlink="http://www.w3.org/1999/xlink" width="500" zoomAndPan="magnify" viewBox="0 0 375 374.999991" height="500" preserveAspectRatio="xMidYMid meet" version="1.0"><defs><g/><clipPath id="70186b9ee6"><path d="M 60.867188 78.050781 L 100 78.050781 L 100 117 L 60.867188 117 Z M 60.867188 78.050781 " clip-rule="nonzero"/></clipPath><clipPath id="3c0af023cb"><path d="M 61 78.050781 L 108 78.050781 L 108 139 L 61 139 Z M 61 78.050781 " clip-rule="nonzero"/></clipPath><clipPath id="ae3d8b6cb0"><path d="M 76 137 L 94 137 L 94 142.550781 L 76 142.550781 Z M 76 137 " clip-rule="nonzero"/></clipPath></defs><rect x="-37.5" width="450" fill="#ffffff" y="-37.499999" height="449.999989" fill-opacity="1"/><rect x="-37.5" width="450" fill="#ffffff" y="-37.499999" height="449.999989" fill-opacity="1"/><g clip-path="url(#70186b9ee6)"><path fill="#ffbd59" d="M 99.84375 97.511719 C 99.84375 98.152344 99.8125 98.785156 99.75 99.421875 C 99.6875 100.054688 99.59375 100.683594 99.46875 101.308594 C 99.34375 101.933594 99.191406 102.550781 99.003906 103.164062 C 98.820312 103.773438 98.605469 104.371094 98.363281 104.960938 C 98.117188 105.550781 97.847656 106.125 97.546875 106.6875 C 97.246094 107.25 96.917969 107.796875 96.5625 108.324219 C 96.210938 108.855469 95.832031 109.367188 95.425781 109.859375 C 95.023438 110.351562 94.59375 110.824219 94.144531 111.273438 C 93.691406 111.726562 93.222656 112.152344 92.726562 112.558594 C 92.234375 112.960938 91.722656 113.339844 91.195312 113.695312 C 90.664062 114.046875 90.117188 114.375 89.554688 114.675781 C 88.996094 114.976562 88.417969 115.25 87.828125 115.492188 C 87.242188 115.738281 86.640625 115.949219 86.03125 116.136719 C 85.421875 116.320312 84.804688 116.476562 84.179688 116.601562 C 83.554688 116.722656 82.925781 116.816406 82.289062 116.878906 C 81.65625 116.941406 81.019531 116.972656 80.382812 116.972656 C 79.746094 116.972656 79.109375 116.941406 78.476562 116.878906 C 77.839844 116.816406 77.210938 116.722656 76.585938 116.601562 C 75.960938 116.476562 75.34375 116.320312 74.734375 116.136719 C 74.125 115.949219 73.523438 115.738281 72.933594 115.492188 C 72.347656 115.25 71.769531 114.976562 71.207031 114.675781 C 70.648438 114.375 70.101562 114.046875 69.570312 113.695312 C 69.039062 113.339844 68.527344 112.960938 68.035156 112.558594 C 67.542969 112.152344 67.070312 111.726562 66.621094 111.273438 C 66.171875 110.824219 65.742188 110.351562 65.339844 109.859375 C 64.933594 109.367188 64.554688 108.855469 64.203125 108.324219 C 63.847656 107.796875 63.519531 107.25 63.21875 106.6875 C 62.917969 106.125 62.648438 105.550781 62.402344 104.960938 C 62.160156 104.371094 61.945312 103.773438 61.757812 103.164062 C 61.574219 102.550781 61.417969 101.933594 61.296875 101.308594 C 61.171875 100.683594 61.078125 100.054688 61.015625 99.421875 C 60.953125 98.785156 60.921875 98.152344 60.921875 97.511719 C 60.921875 96.875 60.953125 96.238281 61.015625 95.605469 C 61.078125 94.972656 61.171875 94.339844 61.296875 93.714844 C 61.417969 93.089844 61.574219 92.472656 61.757812 91.863281 C 61.945312 91.253906 62.160156 90.65625 62.402344 90.066406 C 62.648438 89.476562 62.917969 88.902344 63.21875 88.339844 C 63.519531 87.777344 63.847656 87.230469 64.203125 86.703125 C 64.554688 86.171875 64.933594 85.660156 65.339844 85.167969 C 65.742188 84.675781 66.171875 84.203125 66.621094 83.753906 C 67.070312 83.300781 67.542969 82.875 68.035156 82.46875 C 68.527344 82.066406 69.039062 81.6875 69.570312 81.332031 C 70.101562 80.976562 70.648438 80.652344 71.207031 80.351562 C 71.769531 80.050781 72.347656 79.777344 72.933594 79.535156 C 73.523438 79.289062 74.125 79.074219 74.734375 78.890625 C 75.34375 78.707031 75.960938 78.550781 76.585938 78.425781 C 77.210938 78.300781 77.839844 78.207031 78.476562 78.144531 C 79.109375 78.082031 79.746094 78.050781 80.382812 78.050781 C 81.019531 78.050781 81.65625 78.082031 82.289062 78.144531 C 82.925781 78.207031 83.554688 78.300781 84.179688 78.425781 C 84.804688 78.550781 85.421875 78.707031 86.03125 78.890625 C 86.640625 79.074219 87.242188 79.289062 87.828125 79.535156 C 88.417969 79.777344 88.996094 80.050781 89.554688 80.351562 C 90.117188 80.652344 90.664062 80.976562 91.195312 81.332031 C 91.722656 81.6875 92.234375 82.066406 92.726562 82.46875 C 93.222656 82.875 93.691406 83.300781 94.144531 83.753906 C 94.59375 84.203125 95.023438 84.675781 95.425781 85.167969 C 95.832031 85.660156 96.210938 86.171875 96.5625 86.703125 C 96.917969 87.230469 97.246094 87.777344 97.546875 88.339844 C 97.847656 88.902344 98.117188 89.476562 98.363281 90.066406 C 98.605469 90.65625 98.820312 91.253906 99.003906 91.863281 C 99.191406 92.472656 99.34375 93.089844 99.46875 93.714844 C 99.59375 94.339844 99.6875 94.972656 99.75 95.605469 C 99.8125 96.238281 99.84375 96.875 99.84375 97.511719 Z M 99.84375 97.511719 " fill-opacity="1" fill-rule="nonzero"/></g><g clip-path="url(#3c0af023cb)"><path fill="#04182d" d="M 95.671875 138.5 L 73.78125 138.5 C 73.40625 138.5 73.105469 138.195312 73.105469 137.824219 L 73.105469 125.324219 C 73.105469 123.171875 72.109375 121.144531 70.375 119.761719 C 64.140625 114.8125 60.925781 107.109375 61.773438 99.15625 C 62.933594 88.226562 72.097656 79.414062 83.085938 78.652344 C 89.566406 78.203125 95.746094 80.386719 100.476562 84.800781 C 105.140625 89.152344 107.816406 95.304688 107.816406 101.683594 C 107.816406 108.773438 104.621094 115.371094 99.054688 119.78125 C 97.335938 121.144531 96.347656 123.167969 96.347656 125.324219 L 96.347656 137.824219 C 96.347656 138.195312 96.046875 138.5 95.671875 138.5 Z M 74.453125 137.152344 L 95 137.152344 L 95 125.324219 C 95 122.753906 96.171875 120.347656 98.21875 118.726562 C 103.460938 114.570312 106.46875 108.359375 106.46875 101.683594 C 106.46875 95.679688 103.949219 89.882812 99.554688 85.785156 C 95.105469 81.628906 89.292969 79.574219 83.179688 79.996094 C 72.832031 80.710938 64.207031 89.011719 63.113281 99.300781 C 62.316406 106.789062 65.34375 114.046875 71.210938 118.707031 C 73.269531 120.34375 74.453125 122.757812 74.453125 125.324219 Z M 74.453125 137.152344 " fill-opacity="1" fill-rule="nonzero"/></g><g clip-path="url(#ae3d8b6cb0)"><path fill="#04182d" d="M 84.5625 142.363281 C 79.78125 142.363281 76.035156 140.371094 76.035156 137.824219 C 76.035156 137.453125 76.339844 137.152344 76.710938 137.152344 C 77.082031 137.152344 77.382812 137.453125 77.382812 137.824219 C 77.382812 139.335938 80.332031 141.019531 84.5625 141.019531 C 88.792969 141.019531 91.742188 139.335938 91.742188 137.824219 C 91.742188 137.453125 92.042969 137.152344 92.414062 137.152344 C 92.789062 137.152344 93.089844 137.453125 93.089844 137.824219 C 93.089844 140.371094 89.34375 142.363281 84.5625 142.363281 Z M 84.5625 142.363281 " fill-opacity="1" fill-rule="nonzero"/></g><path fill="#04182d" d="M 71.171875 126 C 70.820312 126 70.527344 125.726562 70.5 125.371094 C 70.476562 125 70.757812 124.679688 71.125 124.652344 L 98.234375 122.773438 C 98.613281 122.753906 98.925781 123.03125 98.953125 123.398438 C 98.976562 123.769531 98.695312 124.09375 98.328125 124.117188 L 71.21875 125.996094 C 71.203125 125.996094 71.1875 126 71.171875 126 Z M 71.171875 126 " fill-opacity="1" fill-rule="nonzero"/><path fill="#04182d" d="M 71.171875 130.304688 C 70.820312 130.304688 70.527344 130.035156 70.5 129.679688 C 70.476562 129.308594 70.757812 128.984375 71.125 128.960938 L 98.234375 127.082031 C 98.613281 127.0625 98.925781 127.335938 98.953125 127.707031 C 98.976562 128.078125 98.695312 128.398438 98.328125 128.425781 L 71.21875 130.304688 C 71.203125 130.304688 71.1875 130.304688 71.171875 130.304688 Z M 71.171875 130.304688 " fill-opacity="1" fill-rule="nonzero"/><path fill="#04182d" d="M 71.171875 134.613281 C 70.820312 134.613281 70.527344 134.339844 70.5 133.984375 C 70.476562 133.613281 70.757812 133.292969 71.125 133.265625 L 98.234375 131.386719 C 98.613281 131.363281 98.925781 131.644531 98.953125 132.011719 C 98.976562 132.382812 98.695312 132.707031 98.328125 132.730469 L 71.21875 134.609375 C 71.203125 134.609375 71.1875 134.613281 71.171875 134.613281 Z M 71.171875 134.613281 " fill-opacity="1" fill-rule="nonzero"/><path stroke-linecap="butt" transform="matrix(0.643193, 0, 0, 0.643193, 64.777822, 122.487297)" fill="none" stroke-linejoin="miter" d="M 30.438197 42.981655 C 20.59352 42.981655 15.528461 49.24921 15.528461 58.802373 L 15.528461 134.675015 C 15.528461 143.930591 20.59352 150.495733 30.438197 150.495733 C 40.319314 150.495733 45.384373 143.930591 45.384373 134.675015 L 45.384373 58.802373 C 45.384373 49.24921 40.319314 42.981655 30.438197 42.981655 Z M 30.438197 42.981655 " stroke="#000000" stroke-width="2.706624" stroke-opacity="1" stroke-miterlimit="4"/><g fill="#ffde59" fill-opacity="1"><g transform="translate(225.616708, 229.584908)"><g><path d="M -58.703125 -11.574219 C -58.703125 -6.117188 -55.230469 -3.308594 -49.9375 -3.308594 L -7.9375 -3.308594 C -2.8125 -3.308594 0.828125 -6.117188 0.828125 -11.574219 C 0.828125 -17.03125 -2.8125 -19.84375 -7.9375 -19.84375 L -49.9375 -19.84375 C -55.230469 -19.84375 -58.703125 -17.03125 -58.703125 -11.574219 Z M -58.703125 -11.574219 "/></g></g></g><g fill="#5ce1e6" fill-opacity="1"><g transform="translate(96.296522, 222.005015)"><g><path d="M 11.574219 -58.703125 C 6.117188 -58.703125 3.308594 -55.230469 3.308594 -49.9375 L 3.308594 -7.9375 C 3.308594 -2.8125 6.117188 0.828125 11.574219 0.828125 C 17.03125 0.828125 19.84375 -2.8125 19.84375 -7.9375 L 19.84375 -49.9375 C 19.84375 -55.230469 17.03125 -58.703125 11.574219 -58.703125 Z M 11.574219 -58.703125 "/></g></g></g><g fill="#ff8bd2" fill-opacity="1"><g transform="translate(277.559864, 198.408936)"><g><path d="M -14.820312 -57.96875 C -19.746094 -55.621094 -20.789062 -51.277344 -18.511719 -46.5 L -0.429688 -8.589844 C 1.773438 -3.960938 5.878906 -1.886719 10.804688 -4.234375 C 15.730469 -6.585938 16.699219 -11.078125 14.496094 -15.707031 L -3.585938 -53.617188 C -5.863281 -58.394531 -9.894531 -60.316406 -14.820312 -57.96875 Z M -14.820312 -57.96875 "/></g></g></g><path stroke-linecap="butt" transform="matrix(0.643193, 0, 0, 0.643193, 97.830334, 122.487297)" fill="none" stroke-linejoin="miter" d="M 33.466039 44.475665 L 22.382426 44.475665 C 11.335253 44.475665 5.97868 51.332322 5.97868 61.796466 L 5.97868 131.680921 C 5.97868 142.145066 11.335253 149.001723 22.382426 149.001723 L 65.696577 149.001723 C 95.260975 149.001723 111.087766 123.627842 111.087766 96.717438 C 111.087766 69.849546 95.260975 44.475665 65.696577 44.475665 Z M 38.828685 119.722766 L 38.828685 73.754622 L 58.220452 73.754622 C 69.595579 73.754622 78.23776 81.807701 78.23776 96.717438 C 78.23776 111.669686 69.595579 119.722766 58.220452 119.722766 Z M 137.366556 44.475665 C 126.319383 44.475665 120.962809 51.332322 120.962809 61.796466 L 120.962809 131.680921 C 120.962809 142.145066 126.319383 149.001723 137.366556 149.001723 L 189.06174 149.001723 C 195.918396 149.001723 201.602923 143.311123 201.602923 136.460539 C 201.602923 129.603883 195.918396 123.627842 189.06174 123.627842 L 153.812815 123.627842 L 153.812815 109.586575 L 174.115564 109.586575 C 180.972221 109.586575 186.656748 103.610534 186.656748 96.717438 C 186.656748 89.866854 180.972221 83.88474 174.115564 83.88474 L 153.812815 83.88474 L 153.812815 69.849546 L 189.06174 69.849546 C 195.918396 69.849546 201.602923 63.873505 201.602923 57.016848 C 201.602923 50.129826 195.918396 44.475665 189.06174 44.475665 Z M 258.624314 42.981655 C 258.3328 42.981655 258.187043 42.981655 257.895529 42.981655 C 251.6219 42.981655 245.937373 46.698461 243.423064 52.534818 L 208.45958 126.907376 C 207.257084 129.275929 206.674055 131.680921 206.674055 134.049474 C 206.674055 143.019609 214.144107 150.495733 223.114241 150.495733 C 229.970898 150.495733 235.655425 147.507713 238.023978 140.94257 L 242.07481 129.603883 L 274.481472 129.603883 L 278.350108 140.94257 C 280.7551 147.507713 286.403187 150.495733 293.296283 150.495733 C 302.223906 150.495733 309.70003 143.019609 309.70003 134.049474 C 309.70003 131.680921 309.117002 129.275929 307.914506 126.907376 L 272.987461 52.534818 C 270.290955 46.844218 264.891869 43.273169 258.624314 42.981655 Z M 265.657094 104.193562 L 250.856675 104.193562 L 258.3328 83.010197 Z M 265.657094 104.193562 " stroke="#000000" stroke-width="2.706624" stroke-opacity="1" stroke-miterlimit="4"/><g fill="#000000" fill-opacity="1"><g transform="translate(122.337351, 257.813347)"><g><path d="M 7.054688 -12.78125 C 3.257812 -12.78125 0.71875 -10.296875 0.71875 -6.300781 C 0.71875 -2.304688 3.257812 0.179688 7.054688 0.179688 C 8.820312 0.179688 10.207031 -0.414062 11.089844 -1.132812 C 11.375 -1.367188 11.539062 -1.691406 11.539062 -2.070312 C 11.539062 -2.789062 11.105469 -3.222656 10.351562 -3.222656 C 10.117188 -3.222656 9.972656 -3.167969 9.773438 -3.042969 C 8.980469 -2.464844 8.152344 -2.140625 7.054688 -2.140625 C 4.789062 -2.140625 3.328125 -3.671875 3.328125 -6.300781 C 3.328125 -8.929688 4.789062 -10.457031 7.054688 -10.457031 C 8.152344 -10.457031 8.980469 -10.132812 9.773438 -9.558594 C 9.972656 -9.433594 10.117188 -9.378906 10.351562 -9.378906 C 11.105469 -9.378906 11.539062 -9.808594 11.539062 -10.53125 C 11.539062 -10.90625 11.375 -11.230469 11.089844 -11.464844 C 10.207031 -12.1875 8.820312 -12.78125 7.054688 -12.78125 Z M 7.054688 -12.78125 "/></g></g></g><g fill="#000000" fill-opacity="1"><g transform="translate(134.613313, 257.813347)"><g><path d="M 8.441406 -5.507812 C 9.898438 -5.902344 10.835938 -7.109375 10.835938 -9.019531 C 10.835938 -11.375 9.394531 -12.601562 7.128906 -12.601562 L 2.410156 -12.601562 C 1.546875 -12.601562 1.097656 -12.058594 1.097656 -11.230469 L 1.097656 -1.1875 C 1.097656 -0.359375 1.546875 0.179688 2.410156 0.179688 C 3.277344 0.179688 3.707031 -0.359375 3.707031 -1.1875 L 3.707031 -4.699219 L 5.058594 -4.699219 C 5.886719 -4.699219 6.535156 -4.355469 6.929688 -3.671875 L 8.890625 -0.46875 C 9.109375 -0.0703125 9.558594 0.179688 9.988281 0.179688 C 10.691406 0.179688 11.304688 -0.414062 11.304688 -1.117188 C 11.304688 -1.367188 11.230469 -1.601562 11.089844 -1.816406 L 9.574219 -4.339844 C 9.269531 -4.859375 8.890625 -5.238281 8.441406 -5.507812 Z M 3.707031 -6.875 L 3.707031 -10.441406 L 6.445312 -10.441406 C 7.488281 -10.441406 8.207031 -9.792969 8.207031 -8.675781 C 8.207031 -7.558594 7.488281 -6.875 6.445312 -6.875 Z M 3.707031 -6.875 "/></g></g></g><g fill="#000000" fill-opacity="1"><g transform="translate(146.241277, 257.813347)"><g><path d="M 2.410156 -12.601562 C 1.546875 -12.601562 1.097656 -12.058594 1.097656 -11.230469 L 1.097656 -1.367188 C 1.097656 -0.539062 1.546875 0 2.410156 0 L 8.855469 0 C 9.433594 0 9.9375 -0.503906 9.9375 -1.078125 C 9.9375 -1.65625 9.433594 -2.160156 8.855469 -2.160156 L 3.707031 -2.160156 L 3.707031 -5.21875 L 7.054688 -5.21875 C 7.632812 -5.21875 8.136719 -5.722656 8.136719 -6.300781 C 8.136719 -6.875 7.632812 -7.378906 7.054688 -7.378906 L 3.707031 -7.378906 L 3.707031 -10.441406 L 8.855469 -10.441406 C 9.433594 -10.441406 9.9375 -10.945312 9.9375 -11.519531 C 9.9375 -12.097656 9.433594 -12.601562 8.855469 -12.601562 Z M 2.410156 -12.601562 "/></g></g></g><g fill="#000000" fill-opacity="1"><g transform="translate(156.717243, 257.813347)"><g><path d="M 6.121094 -12.78125 C 6.101562 -12.78125 6.085938 -12.78125 6.085938 -12.78125 C 5.578125 -12.78125 5.113281 -12.472656 4.894531 -12.023438 L 0.449219 -1.691406 C 0.359375 -1.492188 0.324219 -1.3125 0.324219 -1.117188 C 0.324219 -0.394531 0.898438 0.179688 1.621094 0.179688 C 2.160156 0.179688 2.609375 -0.0546875 2.808594 -0.574219 L 3.707031 -3.023438 L 8.460938 -3.023438 L 9.359375 -0.574219 C 9.558594 -0.0546875 10.007812 0.179688 10.546875 0.179688 C 11.269531 0.179688 11.863281 -0.394531 11.863281 -1.117188 C 11.863281 -1.3125 11.808594 -1.492188 11.71875 -1.691406 L 7.273438 -12.023438 C 7.054688 -12.472656 6.625 -12.761719 6.121094 -12.78125 Z M 7.722656 -5.058594 L 4.464844 -5.058594 L 6.101562 -9.503906 Z M 7.722656 -5.058594 "/></g></g></g><g fill="#000000" fill-opacity="1"><g transform="translate(168.849204, 257.813347)"><g><path d="M 1.476562 -12.601562 C 0.828125 -12.601562 0.324219 -12.078125 0.324219 -11.429688 C 0.324219 -10.78125 0.828125 -10.261719 1.476562 -10.261719 L 3.886719 -10.261719 L 3.886719 -1.1875 C 3.886719 -0.359375 4.320312 0.179688 5.183594 0.179688 C 6.046875 0.179688 6.496094 -0.359375 6.496094 -1.1875 L 6.496094 -10.261719 L 8.890625 -10.261719 C 9.539062 -10.261719 10.0625 -10.78125 10.0625 -11.429688 C 10.0625 -12.078125 9.539062 -12.601562 8.890625 -12.601562 Z M 1.476562 -12.601562 "/></g></g></g><g fill="#000000" fill-opacity="1"><g transform="translate(179.18117, 257.813347)"><g><path d="M 1.476562 -12.601562 C 0.828125 -12.601562 0.324219 -12.078125 0.324219 -11.429688 C 0.324219 -10.78125 0.828125 -10.261719 1.476562 -10.261719 L 2.84375 -10.261719 L 2.84375 -2.339844 L 1.476562 -2.339844 C 0.828125 -2.339844 0.324219 -1.816406 0.324219 -1.171875 C 0.324219 -0.523438 0.828125 0 1.476562 0 L 6.820312 0 C 7.46875 0 7.992188 -0.523438 7.992188 -1.171875 C 7.992188 -1.816406 7.46875 -2.339844 6.820312 -2.339844 L 5.4375 -2.339844 L 5.4375 -10.261719 L 6.820312 -10.261719 C 7.46875 -10.261719 7.992188 -10.78125 7.992188 -11.429688 C 7.992188 -12.078125 7.46875 -12.601562 6.820312 -12.601562 Z M 1.476562 -12.601562 "/></g></g></g><g fill="#000000" fill-opacity="1"><g transform="translate(187.461142, 257.813347)"><g><path d="M 1.621094 -12.78125 C 0.898438 -12.78125 0.324219 -12.203125 0.324219 -11.484375 C 0.324219 -11.285156 0.359375 -11.105469 0.449219 -10.90625 L 4.894531 -0.574219 C 5.113281 -0.125 5.542969 0.160156 6.046875 0.179688 C 6.066406 0.179688 6.085938 0.179688 6.085938 0.179688 C 6.589844 0.179688 7.054688 -0.125 7.273438 -0.574219 L 11.71875 -10.90625 C 11.808594 -11.105469 11.863281 -11.285156 11.863281 -11.484375 C 11.863281 -12.203125 11.269531 -12.78125 10.546875 -12.78125 C 10.007812 -12.78125 9.574219 -12.546875 9.359375 -12.023438 L 6.085938 -3.652344 L 2.808594 -12.023438 C 2.59375 -12.546875 2.160156 -12.78125 1.621094 -12.78125 Z M 1.621094 -12.78125 "/></g></g></g><g fill="#000000" fill-opacity="1"><g transform="translate(199.593103, 257.813347)"><g><path d="M 2.410156 -12.601562 C 1.546875 -12.601562 1.097656 -12.058594 1.097656 -11.230469 L 1.097656 -1.367188 C 1.097656 -0.539062 1.546875 0 2.410156 0 L 8.855469 0 C 9.433594 0 9.9375 -0.503906 9.9375 -1.078125 C 9.9375 -1.65625 9.433594 -2.160156 8.855469 -2.160156 L 3.707031 -2.160156 L 3.707031 -5.21875 L 7.054688 -5.21875 C 7.632812 -5.21875 8.136719 -5.722656 8.136719 -6.300781 C 8.136719 -6.875 7.632812 -7.378906 7.054688 -7.378906 L 3.707031 -7.378906 L 3.707031 -10.441406 L 8.855469 -10.441406 C 9.433594 -10.441406 9.9375 -10.945312 9.9375 -11.519531 C 9.9375 -12.097656 9.433594 -12.601562 8.855469 -12.601562 Z M 2.410156 -12.601562 "/></g></g></g><g fill="#000000" fill-opacity="1"><g transform="translate(210.069069, 257.813347)"><g/></g></g><g fill="#000000" fill-opacity="1"><g transform="translate(215.001049, 257.813347)"><g><path d="M 9.109375 -7.46875 L 3.707031 -7.46875 L 3.707031 -11.410156 C 3.707031 -12.238281 3.257812 -12.78125 2.394531 -12.78125 C 1.53125 -12.78125 1.097656 -12.238281 1.097656 -11.410156 L 1.097656 -1.1875 C 1.097656 -0.359375 1.53125 0.179688 2.394531 0.179688 C 3.257812 0.179688 3.707031 -0.359375 3.707031 -1.1875 L 3.707031 -5.128906 L 9.109375 -5.128906 L 9.109375 -1.1875 C 9.109375 -0.359375 9.574219 0.179688 10.441406 0.179688 C 11.304688 0.179688 11.734375 -0.359375 11.734375 -1.1875 L 11.734375 -11.410156 C 11.734375 -12.238281 11.304688 -12.78125 10.441406 -12.78125 C 9.574219 -12.78125 9.109375 -12.238281 9.109375 -11.410156 Z M 9.109375 -7.46875 "/></g></g></g><g fill="#000000" fill-opacity="1"><g transform="translate(227.817012, 257.813347)"><g><path d="M 2.394531 -12.78125 C 1.53125 -12.78125 1.097656 -12.238281 1.097656 -11.410156 L 1.097656 -4.714844 C 1.097656 -1.765625 3.148438 0.179688 6.40625 0.179688 C 9.664062 0.179688 11.734375 -1.765625 11.734375 -4.714844 L 11.734375 -11.410156 C 11.734375 -12.238281 11.304688 -12.78125 10.441406 -12.78125 C 9.574219 -12.78125 9.109375 -12.238281 9.109375 -11.410156 L 9.109375 -5.003906 C 9.109375 -3.148438 8.171875 -2.140625 6.40625 -2.140625 C 4.644531 -2.140625 3.707031 -3.1875 3.707031 -5.003906 L 3.707031 -11.410156 C 3.707031 -12.238281 3.257812 -12.78125 2.394531 -12.78125 Z M 2.394531 -12.78125 "/></g></g></g><g fill="#000000" fill-opacity="1"><g transform="translate(240.632975, 257.813347)"><g><path d="M 9.324219 -6.390625 C 10.242188 -6.894531 10.855469 -7.882812 10.855469 -9.144531 C 10.855469 -11.304688 9.613281 -12.601562 7.09375 -12.601562 L 2.410156 -12.601562 C 1.546875 -12.601562 1.097656 -12.058594 1.097656 -11.230469 L 1.097656 -1.367188 C 1.097656 -0.539062 1.546875 0 2.410156 0 L 7.453125 0 C 9.613281 0 11.304688 -1.042969 11.304688 -3.421875 C 11.304688 -4.96875 10.566406 -5.976562 9.324219 -6.390625 Z M 3.707031 -2.160156 L 3.707031 -5.21875 L 6.949219 -5.21875 C 7.992188 -5.21875 8.675781 -4.714844 8.675781 -3.707031 C 8.675781 -2.664062 7.9375 -2.160156 6.949219 -2.160156 Z M 3.707031 -7.378906 L 3.707031 -10.441406 L 6.640625 -10.441406 C 7.6875 -10.441406 8.242188 -9.757812 8.242188 -8.890625 C 8.242188 -8.027344 7.6875 -7.378906 6.640625 -7.378906 Z M 3.707031 -7.378906 "/></g></g></g></svg>